<svg id="Layer_1" data-name="Layer 1" xmlns="http://www.w3.org/2000/svg" viewBox="0 0 512 512"><defs><style>.cls-1{fill:none;}.cls-2{fill:#010101;}</style></defs><title>fitting</title><rect class="cls-1" width="512" height="512"/><path class="cls-2" d="M477,314.4c0-14.48-1.82-16.3-16.35-16.3-40.41,0-80.81-.19-121.21.18-6.85.06-8.52-1.94-8.06-8.37a214.45,214.45,0,0,0,0-23.92c-.16-4.27,1.23-5.57,5.48-5.5,14.22.23,28.43.13,42.65.07,10.29-.05,12.95-2.43,12.92-12.74,0-4.65,1.36-5.95,5.94-5.84,12.21.3,24.44.13,36.66.09,10.95,0,14-3.18,14.09-14.38.05-12,0-23.93,0-35.9,0-13.18-2.5-15.64-15.78-15.64q-70.71,0-141.42-.1c-2.33,0-5.84,1.91-7-2-1.08-3.77,1.34-5.58,4.33-7.57,17.32-11.51,27.25-27.84,28-48.56.82-22.91.59-45.87.1-68.8-.38-17.94-13.93-31.18-31.91-32.39-3.48-.24-7-.14-10.47-.14q-47.52,0-95,0c-5.54,0-10.53.66-12.46,7-6,19.81,3.71,40.61,22.82,47.75,4.22,1.58,4.93,3.77,4.85,7.64-.2,10.46.13,20.94-.1,31.41-.54,24.34,8.73,43.57,29.39,56.85,2.72,1.74,4.06,3.68,3.36,6.68-.86,3.68-4,2.16-6.2,2.17-24.19.11-48.39.07-72.58.07s-48.39-.05-72.58,0c-9.76,0-12.9,3.25-12.95,13.1q-.12,19.81,0,39.64c.06,9.77,3.34,13.09,12.95,13.15,12.47.08,25,.2,37.41-.07,4.72-.1,6.56,1,6.46,6.18-.2,10,2.42,12.34,12.3,12.39,14.21.07,28.43.16,42.65-.07,4.47-.07,6.25,1.1,6,5.87a216.89,216.89,0,0,0,0,23.92c.4,6.18-1.49,8-7.81,8-41.4-.28-82.8-.16-124.2-.13-11,0-13.86,2.79-13.89,13.64q-.07,28,0,56.1c0,12.54,2.32,14.86,14.81,14.86,40.9,0,81.81.14,122.71-.14,6.38,0,8.53,1.29,8.44,8.14-.41,30.41-.2,60.83-.16,91.25,0,10.76,2.59,13.44,13.11,13.45q61.72.07,123.46,0c10.9,0,13.63-2.81,13.63-13.79,0-30.42.19-60.84-.13-91.25-.07-6.2,1.63-7.85,7.83-7.81,41.4.28,82.81.16,124.21.13,11.14,0,13.56-2.47,13.58-13.7C477,350.8,477,332.6,477,314.4Zm-83.3-117.87c3.55-4.33,11.65-.55,16.23-1.46,20,0,19.57,0,20.26,18.42.3,8.14-2.37,10.15-9.91,9.53s-15.39-.29-23.09-.08c-3.57.1-5-1.09-4.62-4.66.17-1.47,0-3,0-4.47C392.75,207.89,390.71,200.15,393.69,196.53ZM111.59,223a163.24,163.24,0,0,0-23.09,0c-4.78.25-6-1.47-5.7-5.94a113.36,113.36,0,0,0,0-16.38c-.37-4.83,1.59-6,6-5.67,4.2.33,8.45.07,12.67.07,18.82,0,18.47,0,19,18.9C120.61,221,119,223.71,111.59,223ZM201.89,54.1c-8.73-.09-14.43-4.61-15.69-12-.73-4.22-.44-6.94,5.41-6.77,15.2.44,30.42.15,45.63.15s30.43-.08,45.64,0c8.14.07,13.92,4.63,15.3,11.59.94,4.71.21,7.32-5.77,7.17-15.7-.39-31.42-.13-47.13-.13C230.82,54.14,216.35,54.25,201.89,54.1Zm12.68,62.74c-.36-12.68.06-25.38-.25-38-.11-4.56,1.19-6,5.85-5.89,11.94.32,23.89.11,35.83.11,12.2,0,24.4.18,36.58-.1,4.58-.11,6,1.28,5.92,5.89-.31,12.43.07,24.88-.18,37.31a42.07,42.07,0,0,1-41.63,41.28A41.56,41.56,0,0,1,214.57,116.84Zm32.72,66.27c-.45-5.37.44-7.82,7-7.12,11.09,1.17,11.15.6,11.06,12a64.05,64.05,0,0,1-.06,8.2c-.69,5.22-4.16,8.08-9.18,8s-8.45-2.89-8.68-8.34C247.29,191.57,247.64,187.31,247.29,183.11ZM145.18,242c-5.05.12-6.42-1.53-6.31-6.35.28-11.7.24-23.42,0-35.12-.08-4.22,1.28-5.58,5.55-5.55q38.88.24,77.76,0c3.79,0,5.38.82,6.42,4.93,3.81,14.95,13.66,22.92,27.27,23.06,14.05.15,23.81-7.66,28.08-23,1-3.72,2.45-5.06,6.48-5q38.51.32,77,0c4.22,0,6.31.68,6.17,5.63-.33,12-.27,23.92,0,35.87.09,4.3-1.39,5.54-5.57,5.48-14.21-.22-28.41-.13-42.62-.07-10,0-12.8,2.84-12.87,13-.09,12.46-.21,24.92.07,37.37.1,4.64-1.47,6-6,5.92-16.95-.21-33.89-.08-50.84-.08-16.2,0-32.41-.3-48.6.15-6.19.18-7.49-1.95-7.31-7.63.39-12.45.21-24.92.09-37.37-.08-8.05-3.27-11.24-11.42-11.31C174.09,241.81,159.63,241.67,145.18,242ZM247.25,430c0,13.45-.2,26.9.11,40.34.11,5-1.48,6.41-6.38,6.28-11.95-.33-23.92-.23-35.87,0-3.89.06-5.2-1.22-5.18-5.15q.19-41.82,0-83.66c0-4,1.35-5.18,5.2-5.12,12,.18,23.92.27,35.87,0,4.89-.13,6.48,1.32,6.36,6.3C247,402.6,247.25,416.3,247.25,430Zm59.39,46.6c-12-.27-23.94-.21-35.91,0-3.78.06-5.25-.92-5.23-5q.22-41.88,0-83.76c0-3.81,1-5.27,5-5.19,12.22.22,24.44.24,36.66,0,4.45-.09,5.44,1.73,5.39,5.76-.18,13.71-.07,27.42-.07,41.13s-.16,27.43.09,41.13C312.7,475.23,311.22,476.7,306.64,476.6ZM450.51,364.13c-64.81-.21-129.62-.13-194.44-.13H65.37c-10.83,0-10.83,0-10.83-11.19,0-10.22.15-20.44-.07-30.65-.08-3.86,1.09-5.6,5.06-5.11,1.22.16,2.49,0,3.73,0,6.17.4,13.84-2.54,18.13,1.19,4.12,3.59,1,11.27,1.35,17.14S86,344.9,91.91,345s9.1-3.48,9.28-9.41c.13-4.49.28-9,0-13.45-.23-4.05,1.49-5.22,5.27-5.08,6,.21,12,.24,17.94,0,3.94-.15,5.33,1.32,5.09,5.2a119.56,119.56,0,0,0,0,12.7c.28,6,3.05,10.2,9.56,10.07s9.09-4.33,9.37-10.35c.05-1.25,0-2.49,0-3.74.06-13.81.06-13.81,14.24-13.81,13.83,0,13.82,0,13.91,13.57a56.35,56.35,0,0,0,.25,6c.62,5.61,3.84,8.65,9.46,8.35s8.62-3.6,8.92-9.14a69.11,69.11,0,0,0,0-11.95c-.73-5.9,1.84-7.64,7.18-6.8a6.26,6.26,0,0,0,.75,0c6.22.1,13.85-2,18.3.89,5,3.24,1.23,11.45,1.95,17.44.69,5.71,3.29,9.5,9.33,9.56s9.1-3.71,9.59-9.36a129.12,129.12,0,0,0,.14-14.19c-.08-3.2,1.16-4.62,4.39-4.36,1.49.12,3-.06,4.49,0,5.92.36,13.26-2.41,17.41,1.11,4,3.4.89,10.79,1.4,16.39.54,5.88,3,10.11,9.44,10.43,5.68.27,9.5-4,9.88-10.76,0-.49,0-1,0-1.49.58-5.07-2.24-13.52,1.35-14.6,7.54-2.27,16.18-.94,24.37-.83,2.32,0,2.25,2.26,2.26,4,0,4.48,0,9,0,13.45,0,6.19,2.89,10.18,9.33,10.13s9.16-4.19,9.25-10.31c0-1.25,0-2.49,0-3.74.06-13.82.06-13.82,14.28-13.82,13.89,0,13.89,0,13.94,14.15a32.84,32.84,0,0,0,.18,6c.9,4.68,3.74,7.62,8.65,7.8,5.15.19,8.87-2.25,9.51-7.49a113.4,113.4,0,0,0,.5-15.65c-.05-3.46,1.06-5.18,4.71-4.79,1.23.13,2.49,0,3.73,0,6,.09,13.24-1.88,17.58.83,5,3.11,1.38,11,2,16.71s2.64,10.23,9.32,10.42c5.73.16,9.22-4,9.56-10.91.27-5.42-2.34-12.52,1.1-15.83,3.75-3.6,10.92-1.07,16.58-1.17,10.54-.19,10.54-.05,10.54,10.83,0,9.47-.41,19,.15,28.39C458.82,362.75,456.61,364.15,450.51,364.13Z"/></svg>