<?xml version="1.0" encoding="UTF-8"?>
<!DOCTYPE svg PUBLIC "-//W3C//DTD SVG 1.1//EN" "http://www.w3.org/Graphics/SVG/1.1/DTD/svg11.dtd">
<svg xmlns="http://www.w3.org/2000/svg" version="1.1" width="1366px" height="300px" style="shape-rendering:geometricPrecision; text-rendering:geometricPrecision; image-rendering:optimizeQuality; fill-rule:evenodd; clip-rule:evenodd" xmlns:xlink="http://www.w3.org/1999/xlink">
<g><path style="opacity:0.944" fill="#1e256d" d="M 310.5,16.5 C 321.505,16.3335 332.505,16.5002 343.5,17C 344,17.5 344.5,18 345,18.5C 347.527,33.2222 350.36,47.8888 353.5,62.5C 353.554,66.5578 351.888,69.7244 348.5,72C 340.938,74.0344 333.271,75.7011 325.5,77C 323.683,78.7998 322.516,80.9664 322,83.5C 320.893,89.7869 320.393,96.1202 320.5,102.5C 329.159,101.75 337.826,101.584 346.5,102C 350.527,102.427 353.027,104.594 354,108.5C 354.667,126.5 354.667,144.5 354,162.5C 352.74,165.428 350.573,167.261 347.5,168C 339.423,168.315 331.423,168.481 323.5,168.5C 325.437,201.445 326.271,234.445 326,267.5C 322.917,271.375 318.917,273.375 314,273.5C 300,273.5 286,273.5 272,273.5C 269.26,272.718 266.426,272.218 263.5,272C 262.643,271.311 261.977,270.478 261.5,269.5C 284.408,250.689 297.075,226.356 299.5,196.5C 296.406,169.321 286.906,144.654 271,122.5C 264.253,115.545 256.42,110.212 247.5,106.5C 248.375,104.227 250.042,103.227 252.5,103.5C 245.232,56.2915 264.565,27.2915 310.5,16.5 Z"/></g>
<g><path style="opacity:0.955" fill="#1e256d" d="M 94.5,19.5 C 98.1817,19.3347 101.848,19.5014 105.5,20C 106.931,20.4652 108.097,21.2986 109,22.5C 116.237,39.9705 123.737,57.3038 131.5,74.5C 130.955,77.7583 129.289,80.2583 126.5,82C 115.111,80.2925 104.444,82.2925 94.5,88C 90.9641,91.0349 88.9641,94.8682 88.5,99.5C 91.6124,110.946 97.2791,120.946 105.5,129.5C 84.9972,154.795 79.8305,183.128 90,214.5C 93.2441,226.994 99.0775,237.994 107.5,247.5C 97.002,258.471 84.6686,266.971 70.5,273C 64.4425,275.01 58.4425,277.01 52.5,279C 47.2247,280.359 41.8913,280.692 36.5,280C 33.0206,276.85 29.854,273.35 27,269.5C 19.2186,256.271 12.2186,242.605 6,228.5C 5.33333,225.167 5.33333,221.833 6,218.5C 6.90252,217.299 8.06919,216.465 9.5,216C 18.7274,213.026 28.0607,210.359 37.5,208C 53.5314,201.727 58.3647,190.56 52,174.5C 43.15,162.138 33.8166,150.138 24,138.5C 0.8882,88.8314 14.0549,52.3314 63.5,29C 73.6148,24.7274 83.9482,21.5608 94.5,19.5 Z"/></g>
<g><path style="opacity:0.958" fill="#1e256d" d="M 505.5,27.5 C 527.5,28.6433 549.5,28.81 571.5,28C 573.286,28.7845 574.786,29.9512 576,31.5C 577.395,37.3699 577.895,43.2033 577.5,49C 574.898,70.4059 573.564,91.9059 573.5,113.5C 598.5,113.5 623.5,113.5 648.5,113.5C 648.262,90.8223 647.595,68.1556 646.5,45.5C 644.066,32.2963 649.4,26.2963 662.5,27.5C 677.5,28.8333 692.5,28.8333 707.5,27.5C 711.587,27.4481 715.587,27.9481 719.5,29C 721.049,30.214 722.215,31.714 723,33.5C 723.333,55.505 723,77.505 722,99.5C 721.667,100.5 721.333,101.5 721,102.5C 714.022,109.809 706.689,116.809 699,123.5C 686.952,139.471 680.119,157.471 678.5,177.5C 678.87,186.884 679.703,196.217 681,205.5C 685.183,214.197 688.516,223.197 691,232.5C 694.085,237.672 697.419,242.672 701,247.5C 708.714,253.714 715.548,260.714 721.5,268.5C 721.069,270.766 719.736,272.266 717.5,273C 697.2,274.58 676.867,274.913 656.5,274C 652.687,273.852 649.521,272.352 647,269.5C 645.877,263.772 645.377,257.939 645.5,252C 646.44,228.506 647.107,205.006 647.5,181.5C 623.167,180.186 598.834,180.186 574.5,181.5C 576.113,210.142 576.613,238.808 576,267.5C 573.48,271.373 569.98,273.54 565.5,274C 547.167,274.667 528.833,274.667 510.5,274C 505.626,273.983 502.126,271.816 500,267.5C 499.822,229.31 500.655,191.143 502.5,153C 500.794,112.853 499.96,72.6863 500,32.5C 501.107,29.887 502.94,28.2203 505.5,27.5 Z"/></g>
<g><path style="opacity:0.948" fill="#1e256d" d="M 1029.5,27.5 C 1051.17,27.3334 1072.84,27.5 1094.5,28C 1096.49,28.5743 1097.99,29.741 1099,31.5C 1098.33,61.4975 1097.33,91.4975 1096,121.5C 1076.2,141.033 1067.53,164.699 1070,192.5C 1071,196.5 1072,200.5 1073,204.5C 1075.4,209.048 1077.4,213.715 1079,218.5C 1085.06,226.222 1090.72,234.222 1096,242.5C 1096.67,251.167 1096.67,259.833 1096,268.5C 1093.66,271.754 1090.49,273.588 1086.5,274C 1068.77,276.205 1051.1,275.872 1033.5,273C 1031.67,271.167 1029.83,269.333 1028,267.5C 1027.67,203.833 1027.33,140.167 1027,76.5C 1025.72,61.5118 1025.06,46.5118 1025,31.5C 1026.25,29.8065 1027.75,28.4732 1029.5,27.5 Z"/></g>
<g><path style="opacity:0.961" fill="#1e256d" d="M 381.5,43.5 C 400.288,47.0176 419.288,49.8509 438.5,52C 440,53.5 441.5,55 443,56.5C 442.442,71.8081 441.942,87.1414 441.5,102.5C 453.838,102.333 466.171,102.5 478.5,103C 482.586,105.277 484.252,108.777 483.5,113.5C 482.124,129.844 480.957,146.178 480,162.5C 478.681,164.487 476.848,165.654 474.5,166C 463.371,165.539 452.371,165.373 441.5,165.5C 441.333,176.838 441.5,188.172 442,199.5C 442.3,208.302 446.8,212.302 455.5,211.5C 460.551,210.99 465.551,210.157 470.5,209C 482.227,205.739 487.561,210.072 486.5,222C 485.93,233.608 484.763,245.108 483,256.5C 471.54,265.976 458.373,271.809 443.5,274C 429.683,276.245 416.017,275.578 402.5,272C 388.366,266.869 379.533,257.036 376,242.5C 375.482,216.749 375.982,191.249 377.5,166C 375.515,163.466 373.181,162.966 370.5,164.5C 366.252,164.258 362.752,162.592 360,159.5C 359.333,143.833 359.333,128.167 360,112.5C 360.833,111 362,109.833 363.5,109C 367.418,107.844 371.418,107.344 375.5,107.5C 375.806,94.2962 375.473,81.1295 374.5,68C 375.121,61.4746 375.954,54.9746 377,48.5C 378.517,46.7605 380.017,45.0938 381.5,43.5 Z"/></g>
<g><path style="opacity:0.954" fill="#1e256d" d="M 909.5,95.5 C 926.192,94.4518 940.692,99.4518 953,110.5C 953.926,103.609 957.759,99.6092 964.5,98.5C 980.169,100.799 995.503,104.299 1010.5,109C 1013.8,110.467 1015.8,112.967 1016.5,116.5C 1012.19,138.537 1010.19,161.037 1010.5,184C 1011.83,211.823 1012.33,239.656 1012,267.5C 1009.34,271.586 1005.5,273.753 1000.5,274C 985.501,274.821 970.501,275.154 955.5,275C 953.671,274.727 952.171,273.893 951,272.5C 948.459,269.277 946.959,265.61 946.5,261.5C 926.791,278.342 904.791,281.842 880.5,272C 875.162,269.333 870.162,266.166 865.5,262.5C 864.167,261.167 864.167,259.833 865.5,258.5C 867.258,257.872 868.758,256.872 870,255.5C 874.667,248.833 879.333,242.167 884,235.5C 888.217,224.862 889.883,213.862 889,202.5C 887.46,198.581 885.293,195.081 882.5,192C 879.167,189.667 875.833,187.333 872.5,185C 866.252,182.292 860.252,179.292 854.5,176C 856.834,171.229 859.667,166.729 863,162.5C 864.264,150.959 860.764,141.125 852.5,133C 851.207,132.51 849.873,132.343 848.5,132.5C 848.343,131.127 848.51,129.793 849,128.5C 859.219,114.142 872.719,104.309 889.5,99C 896.254,97.5018 902.921,96.3351 909.5,95.5 Z M 917.5,158.5 C 937.012,157.015 947.012,166.015 947.5,185.5C 947.102,201.897 938.768,210.897 922.5,212.5C 910.334,211.499 902.501,205.165 899,193.5C 895.953,180.985 899.119,170.485 908.5,162C 911.571,160.704 914.571,159.538 917.5,158.5 Z"/></g>
<g><path style="opacity:0.932" fill="#1e256d" d="M 1297.5,96.5 C 1302.02,96.3919 1305.19,98.3919 1307,102.5C 1308.1,106.416 1308.77,110.416 1309,114.5C 1322.1,104.355 1336.94,99.8548 1353.5,101C 1356.46,101.229 1358.96,102.396 1361,104.5C 1362.1,108.552 1362.6,112.719 1362.5,117C 1361.84,134.161 1361.34,151.328 1361,168.5C 1359.41,171.756 1356.91,173.923 1353.5,175C 1342.83,175.333 1332.17,175.667 1321.5,176C 1318.77,176.398 1316.93,177.898 1316,180.5C 1314.91,187.606 1314.41,194.772 1314.5,202C 1315.21,223.511 1315.71,245.011 1316,266.5C 1314,270.497 1310.84,272.997 1306.5,274C 1288.79,274.93 1271.12,274.596 1253.5,273C 1247.34,269.676 1246.84,265.509 1252,260.5C 1255.22,257.612 1258.72,255.112 1262.5,253C 1274.2,240.759 1281.54,226.259 1284.5,209.5C 1284.55,204.701 1283.22,200.367 1280.5,196.5C 1272.97,190.899 1264.97,186.066 1256.5,182C 1253.94,179.711 1252.27,176.877 1251.5,173.5C 1254.14,169.691 1256.98,166.024 1260,162.5C 1261.97,158.351 1261.64,154.351 1259,150.5C 1254.75,146.274 1250.75,141.94 1247,137.5C 1244.77,132.687 1242.77,127.687 1241,122.5C 1237.47,112.386 1240.97,106.552 1251.5,105C 1267.23,103.547 1282.56,100.714 1297.5,96.5 Z"/></g>
<g><path style="opacity:0.966" fill="#1e256d" d="M 183.5,100.5 C 214.81,100.405 239.976,112.739 259,137.5C 269.806,151.784 276.806,167.784 280,185.5C 283.903,221.478 270.736,249.311 240.5,269C 200.105,292.578 163.605,287.744 131,254.5C 116.313,237.783 106.98,218.45 103,196.5C 100.258,159.048 115.091,130.882 147.5,112C 158.763,105.41 170.763,101.577 183.5,100.5 Z M 182.5,165.5 C 199.539,165.7 210.372,174.033 215,190.5C 218.102,206.997 211.436,216.33 195,218.5C 178.005,214.838 168.838,204.338 167.5,187C 167.241,176.102 172.241,168.936 182.5,165.5 Z"/></g>
<g><path style="opacity:0.962" fill="#1e256d" d="M 764.5,101.5 C 798.149,101.073 824.316,114.739 843,142.5C 847.861,150.563 848.527,158.896 845,167.5C 841.133,171.702 836.967,175.535 832.5,179C 846.899,182.034 859.899,188.034 871.5,197C 877.17,200.728 879.003,205.894 877,212.5C 872.792,229.731 863.959,244.231 850.5,256C 835.587,268.957 818.587,277.957 799.5,283C 767.995,286.491 741.495,276.658 720,253.5C 706.749,237.664 697.749,219.664 693,199.5C 687.119,154.064 705.286,122.564 747.5,105C 753.265,103.614 758.931,102.448 764.5,101.5 Z M 758.5,160.5 C 766.479,159.656 773.145,162.156 778.5,168C 769.979,175.355 761.312,182.522 752.5,189.5C 745.502,180.332 745.836,171.499 753.5,163C 755.315,162.243 756.981,161.41 758.5,160.5 Z M 829.5,180.5 C 830.573,181.251 830.74,182.251 830,183.5C 825.64,196.193 818.473,207.026 808.5,216C 803.655,219.422 798.322,221.755 792.5,223C 788.309,223.922 784.309,223.588 780.5,222C 797.276,208.623 813.609,194.79 829.5,180.5 Z"/></g>
<g><path style="opacity:0.963" fill="#1e256d" d="M 1158.5,101.5 C 1196.19,101.169 1223.86,117.503 1241.5,150.5C 1243.36,156.933 1242.53,162.933 1239,168.5C 1234.5,172.333 1230,176.167 1225.5,180C 1232.08,179.556 1238.41,180.89 1244.5,184C 1254.07,188.703 1262.9,194.537 1271,201.5C 1272.12,210.087 1271.12,218.421 1268,226.5C 1251.22,255.943 1226.39,274.776 1193.5,283C 1155.66,286.272 1126.16,272.105 1105,240.5C 1089.5,217.341 1083.84,192.007 1088,164.5C 1098.55,128.836 1122.05,107.836 1158.5,101.5 Z M 1153.5,160.5 C 1157.58,160.344 1161.58,160.844 1165.5,162C 1168.58,162.911 1170.91,164.744 1172.5,167.5C 1164.75,175.752 1156.25,183.085 1147,189.5C 1141.92,182.308 1141.25,174.642 1145,166.5C 1147.32,163.605 1150.16,161.605 1153.5,160.5 Z M 1224.5,181.5 C 1221.55,194.902 1214.88,206.068 1204.5,215C 1195.61,222.31 1185.61,224.643 1174.5,222C 1191.33,208.666 1208,195.166 1224.5,181.5 Z"/></g>
<g><path style="opacity:0.004" fill="#1e256d" d="M 1094.5,137.5 C 1095.77,138.077 1095.77,138.743 1094.5,139.5C 1093.54,139.03 1093.54,138.363 1094.5,137.5 Z"/></g>
<g><path style="opacity:0.004" fill="#1e256d" d="M 1249.5,160.5 C 1249.9,159.475 1250.56,159.308 1251.5,160C 1250.91,160.464 1250.24,160.631 1249.5,160.5 Z"/></g>
<g><path style="opacity:0.004" fill="#1e256d" d="M 1249.5,160.5 C 1249.27,162.983 1248.6,163.483 1247.5,162C 1247.84,160.97 1248.5,160.47 1249.5,160.5 Z"/></g>
<g><path style="opacity:0.011" fill="#1e256d" d="M 1274.5,204.5 C 1277.04,209.294 1276.87,214.294 1274,219.5C 1273.36,218.391 1272.86,217.225 1272.5,216C 1273.13,212.12 1273.8,208.287 1274.5,204.5 Z"/></g>
<g><path style="opacity:0.008" fill="#1e256d" d="M 1086.5,205.5 C 1087.12,205.611 1087.62,205.944 1088,206.5C 1088.56,209.155 1089.06,211.821 1089.5,214.5C 1089.52,216.067 1089.02,217.4 1088,218.5C 1087.02,215.102 1085.85,211.769 1084.5,208.5C 1085.19,207.482 1085.86,206.482 1086.5,205.5 Z"/></g>
<g><path style="opacity:0.004" fill="#1e256d" d="M 1264.5,234.5 C 1265.43,235.568 1265.77,236.901 1265.5,238.5C 1264.45,238.649 1263.45,238.483 1262.5,238C 1263.82,237.184 1264.49,236.017 1264.5,234.5 Z"/></g>
</svg>
