<svg id="Layer_1" data-name="Layer 1" xmlns="http://www.w3.org/2000/svg" viewBox="0 0 434 435.94"><defs><style>.cls-1{fill:#010101;}</style></defs><title>order modify</title><path class="cls-1" d="M353.43,381.9q0-155.89,0-311.8c0-2.11.5-4.32-.7-6.32-1.74-1.45-3.84-1.19-5.85-1.19-15.17,0-30.35,0-45.52-.05-3.69,0-4-.41-4.1-4.12-.06-5.21,0-10.41,0-15.62,0-1.7,0-3.43-1.33-4.77H270c-1.33,1.35-1.29,3.07-1.3,4.77-.05,5.31-.08,10.63,0,15.94.05,2.64-.7,3.93-3.63,3.89-7.58-.13-15.16-.09-22.73,0-2.84,0-3.77-1.18-3.74-3.87.07-5.31.05-10.63,0-15.94,0-1.7,0-3.42-1.3-4.77H212.09c-1.32,1.35-1.27,3.09-1.29,4.79q-.09,8,0,16c0,2.77-1,3.83-3.82,3.8q-11.57-.11-23.14,0c-2.77,0-3.85-1-3.81-3.8.06-5.33,0-10.66,0-16,0-1.7,0-3.44-1.3-4.79h-25.2c-1.33,1.35-1.28,3.09-1.3,4.79-.05,5.33-.07,10.66,0,16,0,2.77-1,3.83-3.82,3.8q-11.56-.11-23.14,0c-2.78,0-3.85-1-3.82-3.8.07-5.33,0-10.66,0-16,0-1.7,0-3.44-1.3-4.79H94.93c-1.33,1.35-1.31,3.08-1.33,4.78,0,4.87,0,9.75,0,14.62s-.12,5.12-5.17,5.13c-14.52,0-29,0-43.54,0-2,0-4.13-.27-5.8,1.32q0,203.46-.07,406.93c0,2.55.58,3.13,3.13,3.13q155.15-.12,310.29-.07c1.41-1.52,1-3.42,1-5.19Q353.45,425.3,353.43,381.9ZM326.87,92.39a12,12,0,0,0,0,1.7V443.81c0,4.32,0,4.32-4.43,4.32q-127.21,0-254.43.08c-3.43,0-4.3-.79-4.29-4.27q.18-87.51.08-175v-175c0-4.36,0-4.36,4.44-4.36,7.5,0,15,.18,22.48-.08,3.41-.12,4.21,1,4.09,4.24-.24,6.24,0,12.49-.12,18.73-.05,2.38.71,3.16,3.11,3.11q9.87-.19,19.75,0c2.3,0,2.9-.82,2.87-3-.11-6.69,0-13.39-.08-20.09,0-2.2.65-3,2.91-3,9.08.09,18.16.11,27.24,0,2.37,0,2.84.94,2.81,3-.09,6.7,0,13.4-.07,20.09,0,2.22.64,3,2.9,2.92q10-.19,20.09,0c2.12,0,2.73-.7,2.69-2.75-.1-6.58.12-13.17-.1-19.75-.1-3,.95-3.61,3.69-3.56q12.94.23,25.88,0c2.6,0,3.61.61,3.53,3.4-.2,6.58,0,13.17-.11,19.75,0,2.22.64,3,2.9,2.9q9.87-.19,19.75,0c2.46.06,3.07-.86,3-3.15-.12-6.59,0-13.17-.08-19.75,0-2.3.55-3.19,3-3.16,8.86.14,17.72.17,26.57,0,2.87-.06,3.39,1,3.33,3.58-.14,6.46.05,12.94-.09,19.4,0,2.41.76,3.14,3.12,3.09q9.89-.19,19.76,0c2.27,0,2.92-.8,2.89-3-.11-6.69,0-13.39-.08-20.09,0-2.16.57-3,2.87-3q12.6.18,25.21,0C326.2,89.46,327.15,90.15,326.87,92.39Zm140-33.19q-37.46,0-74.91,0c-10.86,0-10.86,0-10.86,10.69V362c0,14.53.08,29-.05,43.58a20.36,20.36,0,0,0,3.37,11.86c3.44,5.21,6.65,10.57,9.93,15.88,8,13,16,26.14,24.28,39a21.12,21.12,0,0,0,1.94,1.6h15.66c.43-.49,1.05-.75,1.5-1.22,8.26-12.88,16.19-26,24.16-39,3.83-6.27,8.28-12.17,11.13-19V60.5C471.21,58.84,469,59.2,466.85,59.2ZM408.2,88.48c0-2,.75-2.53,2.62-2.52,11.68.05,23.37.08,35.05,0,2.43,0,2.77,1,2.74,3.06-.09,6.35,0,12.7,0,19.05s-.08,12.93,0,19.39c0,2.23-.67,2.91-2.91,2.89-11.57-.1-23.14-.08-34.71,0-2,0-2.82-.58-2.81-2.7Q408.29,108,408.2,88.48Zm0,70.79c0-2.8.87-3.43,3.49-3.39q16.68.19,33.36,0c2.8,0,3.63.68,3.62,3.56-.1,33.46-.06,66.93-.06,100.4s0,66.93.07,100.39c0,3-.81,3.79-3.78,3.74-11-.18-22-.15-33,0-2.74,0-3.69-.61-3.69-3.55Q408.29,259.83,408.17,159.27Zm36.71,251.37c-5.06,7.78-9.86,15.75-14.66,23.69-1.23,2-2,2.83-3.52.2q-8.51-14.11-17.31-28c-1.63-2.58-1.13-5.26-1.11-7.91,0-2.9-1.32-6.65.62-8.48s5.62-.52,8.54-.55c9.18-.07,18.37.13,27.54-.11,3.14-.08,4,.95,3.63,3.83a43.15,43.15,0,0,0,0,4.94C449.61,402.4,447.56,406.51,444.88,410.64ZM241.62,270.38c15.21,0,30.42.09,45.63-.07,3.07,0,3.88.9,3.78,3.86-.21,6.23-.18,12.48,0,18.72.07,2.6-.84,3.25-3.33,3.24q-46.31-.11-92.62,0c-2.44,0-3.1-.82-3.06-3.14.13-6.47.15-12.94,0-19.41-.06-2.57.79-3.27,3.31-3.25C210.75,270.43,226.19,270.38,241.62,270.38Zm-.15,99.2c-15.32,0-30.64-.06-46,.05-2.62,0-3.6-.65-3.52-3.42.19-6.46.13-12.93,0-19.39,0-2.15.55-3,2.86-3q46.63.09,93.28,0c2.32,0,2.88.91,2.84,3-.1,6.23-.19,12.48,0,18.71.11,3.07-.71,4.11-3.94,4.07C271.88,369.49,256.68,369.58,241.47,369.58Zm-.05-146.92c-15.32,0-30.63-.06-45.94.05-2.57,0-3.59-.49-3.5-3.33.23-6.46.15-12.93,0-19.39,0-2.1.42-3,2.79-3q46.6.1,93.23,0c2.47,0,3,.88,3,3.16-.13,6.46-.17,12.93,0,19.39.08,2.67-.9,3.18-3.34,3.17C272.27,222.61,256.84,222.66,241.42,222.66ZM118.91,334.14c.45.65.86,1.33,1.36,1.94,2.24,2.72,4.62,5.32,6.71,8.14,1.63,2.21,2.78,2.52,5,.46,6.87-6.44,14-12.56,20.94-19,2.1-1.94,3.4-2.26,5.41.17,4,4.89,8.37,9.56,12.68,14.23,1.41,1.52,1.72,2.5-.06,4.08q-21.25,18.87-42.35,37.92c-1.45,1.29-2.28,1.26-3.53-.24q-12.26-14.82-24.67-29.51c-1.11-1.31-1.22-2.21.18-3.36,5.44-4.46,10.81-9,16.22-13.5C117.28,335.08,117.89,334.79,118.91,334.14Zm-.8-146.4c1.27.06,1.69,1,2.26,1.63,2.34,2.77,4.75,5.49,6.94,8.38,1.43,1.89,2.45,2,4.27.35,7.17-6.61,14.57-13,21.71-19.62,2.06-1.91,3.15-1.62,4.84.37,4.18,4.92,8.53,9.72,12.94,14.44,1.52,1.63,1.45,2.59-.22,4.08q-21.12,18.75-42.07,37.69c-1.76,1.59-2.66,1.26-4-.39q-11.92-14.41-24-28.7c-1.57-1.84-1.39-2.88.42-4.34,5.13-4.12,10.13-8.4,15.18-12.61C116.94,188.52,117.61,188.1,118.11,187.74Zm54.39,81.93a10.16,10.16,0,0,0-1.59,1.06q-21.06,18.81-42.07,37.7c-1.67,1.51-2.58,1.49-4-.26q-11.91-14.44-24-28.71c-1.5-1.76-1.59-2.85.31-4.37q7.83-6.29,15.41-12.86c1.66-1.43,2.58-1.13,3.81.44,2.31,2.95,4.88,5.69,7.14,8.67,1.39,1.82,2.33,1.81,4,.27,7.18-6.59,14.56-13,21.73-19.6,1.94-1.78,3.07-1.9,4.86.24,4.15,4.95,8.59,9.66,12.9,14.48A4.32,4.32,0,0,1,172.5,269.67Z" transform="translate(-39 -38.03)"/></svg>